
<svg xmlns="http://www.w3.org/2000/svg" width="20" height="25"><g fill-rule="evenodd" stroke="#000" stroke-width=".2"><path d="M3.25 1C2.01 1 1 1.84 1 2.872v20.326c0 .235.058.446.241.601.183.156.433.201.683.201.06 0 .12-.015.17-.042L10 19.771l7.905 4.187c.05.027.11.042.17.042.25 0 .5-.045.684-.2.183-.156.241-.367.241-.602V2.872C19 1.84 17.99 1 16.75 1H3.25zm0 .535h13.5c.896 0 1.607.591 1.607 1.337v20.326c0 .166-.036.214-.05.225a.65.65 0 0 1-.16.034l-7.976-4.229a.385.385 0 0 0-.342 0l-7.975 4.229a.65.65 0 0 1-.16-.034c-.014-.011-.05-.06-.05-.225V2.872c0-.746.71-1.337 1.606-1.337z"/><path d="M10 5.423c-.165 0-.3.133-.3.295V9.55H5.8c-.165 0-.3.133-.3.295 0 .163.135.295.3.295h3.9v3.833c0 .163.135.295.3.295.165 0 .3-.132.3-.295V10.14h3.9c.165 0 .3-.132.3-.295a.298.298 0 0 0-.3-.295h-3.9V5.718a.298.298 0 0 0-.3-.295z"/></g></svg>